<svg width="94.794006" height="129.930054" viewBox="0 0 94.794 129.93" fill="none" xmlns="http://www.w3.org/2000/svg" xmlns:xlink="http://www.w3.org/1999/xlink">
	<desc>
			Created with Pixso.
	</desc>
	<defs>
		<linearGradient x1="11.876755" y1="7.881851" x2="78.757385" y2="130.275024" id="paint_linear_1_22_0" gradientUnits="userSpaceOnUse">
			<stop stop-color="#8A2645"/>
			<stop offset="0.670466" stop-color="#291725"/>
			<stop offset="0.989129" stop-color="#171422"/>
		</linearGradient>
	</defs>
	<path id="2" d="M2e-5 107.6L2e-5 129.92L94.79 129.92L94.79 105.59L38.97 105.59L59.84 89.48Q72.65 79.6 79.05 73.38C83.32 69.11 86.8 64.23 89.48 58.74C92.17 53.13 93.51 46.84 93.51 39.89C93.51 27.81 89.48 18.17 81.43 10.98Q79.74 9.44 77.9 8.12Q66.56 1.52e-5 49.41 1.52e-5Q33.12 1.52e-5 22.32 6.4C15.25 10.67 8.35 17.38 1.64 26.53L21.41 42.45Q28.91 33.12 34.58 29.28C38.49 26.59 42.82 25.25 47.58 25.25C52.7 25.25 56.85 26.71 60.02 29.64C63.19 32.57 64.78 36.66 64.78 41.9C64.78 47.03 63.19 51.72 60.02 55.99C56.85 60.14 51.05 65.69 42.63 72.65L2e-5 107.6Z" fill="url(#paint_linear_1_22_0)" fill-opacity="1.000000" fill-rule="evenodd"/>
</svg>
