<svg width="96.623962" height="130.295959" viewBox="0 0 96.624 130.296" fill="none" xmlns="http://www.w3.org/2000/svg" xmlns:xlink="http://www.w3.org/1999/xlink">
	<desc>
			Created with Pixso.
	</desc>
	<defs>
		<linearGradient x1="13.155998" y1="6.051826" x2="80.618172" y2="128.445007" id="paint_linear_1_21_0" gradientUnits="userSpaceOnUse">
			<stop stop-color="#8A2645"/>
			<stop offset="0.670466" stop-color="#291725"/>
			<stop offset="0.989129" stop-color="#171422"/>
		</linearGradient>
	</defs>
	<path id="5" d="M22.09 125.5Q34.06 130.29 47.94 130.29C62.7 130.29 74.48 126.33 83.26 118.4Q87.55 114.52 90.46 109.8Q96.62 99.8 96.62 86.01C96.62 72.1 92.47 61.73 84.18 54.9Q83.28 54.15 82.34 53.47Q70.29 44.65 51.78 44.65C46.42 44.65 40.8 45.38 34.95 46.84L36.41 24.7L90.95 24.7L90.95 0L12.26 0L8.6 63.13L24.88 73.93Q36.05 69.17 46.29 69.17C53.13 69.17 58.62 70.76 62.76 73.93Q65.56 75.98 67.1 78.74Q68.99 82.12 68.99 86.55Q68.99 92.61 66.17 96.76Q64.99 98.5 63.31 99.91Q57.64 104.67 47.58 104.67Q32.39 104.67 17.01 90.76L-1.82e-5 111.08Q10.08 120.7 22.09 125.5Z" fill="url(#paint_linear_1_21_0)" fill-opacity="1.000000" fill-rule="evenodd"/>
</svg>
